<?xml version="1.0" encoding="UTF-8" standalone="no"?>
<!-- Created with Inkscape (http://www.inkscape.org/) -->

<svg
   xmlns:dc="http://purl.org/dc/elements/1.1/"
   xmlns:cc="http://creativecommons.org/ns#"
   xmlns:rdf="http://www.w3.org/1999/02/22-rdf-syntax-ns#"
   xmlns:svg="http://www.w3.org/2000/svg"
   xmlns="http://www.w3.org/2000/svg"
   xmlns:xlink="http://www.w3.org/1999/xlink"
   xmlns:sodipodi="http://sodipodi.sourceforge.net/DTD/sodipodi-0.dtd"
   xmlns:inkscape="http://www.inkscape.org/namespaces/inkscape"
   width="744.09448819"
   height="1052.3622047"
   id="svg2"
   version="1.1"
   inkscape:version="0.47 r22583"
   sodipodi:docname="gamecc.svg">
  <defs
     id="defs4">
    <linearGradient
       id="linearGradient3776">
      <stop
         style="stop-color:#66bb11;stop-opacity:1"
         offset="0"
         id="stop3778" />
      <stop
         style="stop-color:#000000;stop-opacity:1"
         offset="1"
         id="stop3780" />
    </linearGradient>
    <inkscape:perspective
       sodipodi:type="inkscape:persp3d"
       inkscape:vp_x="0 : 526.18109 : 1"
       inkscape:vp_y="0 : 1000 : 0"
       inkscape:vp_z="744.09448 : 526.18109 : 1"
       inkscape:persp3d-origin="372.04724 : 350.78739 : 1"
       id="perspective10" />
    <inkscape:perspective
       id="perspective2891"
       inkscape:persp3d-origin="0.5 : 0.33333333 : 1"
       inkscape:vp_z="1 : 0.5 : 1"
       inkscape:vp_y="0 : 1000 : 0"
       inkscape:vp_x="0 : 0.5 : 1"
       sodipodi:type="inkscape:persp3d" />
    <radialGradient
       inkscape:collect="always"
       xlink:href="#linearGradient3776"
       id="radialGradient3782"
       cx="334.50848"
       cy="696.13989"
       fx="334.50848"
       fy="696.13989"
       r="25.375"
       gradientTransform="matrix(-1.3793097,1.3793116,-1.379311,-1.3793086,1761.5842,1186.1625)"
       gradientUnits="userSpaceOnUse" />
    <radialGradient
       inkscape:collect="always"
       xlink:href="#linearGradient3776"
       id="radialGradient3790"
       gradientUnits="userSpaceOnUse"
       gradientTransform="matrix(-1.3793097,1.3793116,-1.379311,-1.3793086,1846.9413,1267.5911)"
       cx="334.50848"
       cy="696.13989"
       fx="334.50848"
       fy="696.13989"
       r="25.375" />
    <radialGradient
       inkscape:collect="always"
       xlink:href="#linearGradient3776"
       id="radialGradient3035"
       gradientUnits="userSpaceOnUse"
       gradientTransform="matrix(-1.3793097,1.3793116,-1.379311,-1.3793086,1628.3699,1169.7339)"
       cx="334.50848"
       cy="696.13989"
       fx="334.50848"
       fy="696.13989"
       r="25.375" />
  </defs>
  <sodipodi:namedview
     id="base"
     pagecolor="#ffffff"
     bordercolor="#666666"
     borderopacity="1.0"
     inkscape:pageopacity="0.0"
     inkscape:pageshadow="2"
     inkscape:zoom="2.8"
     inkscape:cx="228.32831"
     inkscape:cy="336.21299"
     inkscape:document-units="px"
     inkscape:current-layer="layer1"
     showgrid="false"
     inkscape:snap-bbox="true"
     inkscape:window-width="1440"
     inkscape:window-height="825"
     inkscape:window-x="0"
     inkscape:window-y="24"
     inkscape:window-maximized="1"
     inkscape:snap-global="true"
     inkscape:snap-nodes="false">
    <inkscape:grid
       type="xygrid"
       id="grid2826" />
  </sodipodi:namedview>
  <metadata
     id="metadata7">
    <rdf:RDF>
      <cc:Work
         rdf:about="">
        <dc:format>image/svg+xml</dc:format>
        <dc:type
           rdf:resource="http://purl.org/dc/dcmitype/StillImage" />
        <dc:title></dc:title>
      </cc:Work>
    </rdf:RDF>
  </metadata>
  <g
     inkscape:label="Layer 1"
     inkscape:groupmode="layer"
     id="layer1">
    <rect
       style="fill:#1dd0e2;fill-opacity:1;stroke:#ffffff;stroke-width:2.80779480999999986;stroke-miterlimit:4;stroke-opacity:1;stroke-dasharray:none"
       id="rect3029"
       width="220.62077"
       height="137.76364"
       x="118.4039"
       y="664.83752" />
    <path
       style="fill:#000080"
       d="m 450,607.36218 c -13.80712,0 -25,11.19288 -25,25 0,13.80712 11.19288,25 25,25 7.92611,0 14.9823,-3.71453 19.5625,-9.46875 L 445,637.36218 l 29.75,-8.5 c -1.70096,-12.15148 -12.12976,-21.5 -24.75,-21.5 z"
       id="path2955" />
    <path
       id="path2953"
       d="m 440,542.375 c -13.80712,0 -25,11.19288 -25,25 0,13.80712 11.19288,25 25,25 7.92611,0 14.9823,-3.71453 19.5625,-9.46875 L 435,572.375 l 29.75,-8.5 c -1.70096,-12.15148 -12.12976,-21.5 -24.75,-21.5 z"
       style="fill:#008000" />
    <path
       transform="translate(120,0)"
       sodipodi:type="arc"
       style="fill:#00ff00;stroke:none"
       id="path2949"
       sodipodi:cx="380"
       sodipodi:cy="567.36218"
       sodipodi:rx="25"
       sodipodi:ry="25"
       d="m 405,567.36218 a 25,25 0 1 1 -50,0 25,25 0 1 1 50,0 z" />
    <path
       style="fill:none;stroke:#000000;stroke-width:1px;stroke-linecap:butt;stroke-linejoin:miter;stroke-opacity:1"
       d="m 260.61936,452.33157 -47.47717,42.42641 85.86296,-5.05077 -38.38579,-37.37564 z"
       id="path2816" />
    <text
       xml:space="preserve"
       style="font-size:40px;font-style:normal;font-weight:bold;fill:#000000;fill-opacity:1;stroke:none;font-family:Arial Black;-inkscape-font-specification:'Arial Black, Bold';font-stretch:normal;font-variant:normal"
       x="367.69553"
       y="497.78845"
       id="text2818"><tspan
         sodipodi:role="line"
         id="tspan2820"
         x="367.69553"
         y="497.78845">G</tspan></text>
    <text
       xml:space="preserve"
       style="font-size:40px;font-style:normal;font-weight:bold;fill:#000000;fill-opacity:1;stroke:none;font-family:Arial Black;-inkscape-font-specification:'Arial Black, Bold';font-stretch:normal;font-variant:normal"
       x="131.31982"
       y="418.99655"
       id="text2822"><tspan
         sodipodi:role="line"
         id="tspan2824"
         x="131.31982"
         y="418.99655">G</tspan></text>
    <path
       style="fill:#008000"
       d="M 380 542.375 C 366.19288 542.375 355 553.56788 355 567.375 C 355 581.18212 366.19288 592.375 380 592.375 C 387.92611 592.375 394.9823 588.66047 399.5625 582.90625 L 375 572.375 L 404.75 563.875 C 403.04904 551.72352 392.62024 542.375 380 542.375 z "
       id="path2838" />
    <path
       style="fill:#00ff00;stroke:#000000"
       d="M 380 542.375 C 366.19288 542.375 355 553.56788 355 567.375 C 355 581.18212 366.19288 592.375 380 592.375 C 387.92611 592.375 394.9823 588.66047 399.5625 582.90625 L 395.75 581.28125 L 375 572.375 L 372 576.375 L 393.09375 583.78125 C 390.15251 586.03491 386.4919 587.375 382.5 587.375 C 372.83502 587.375 365 579.53998 365 569.875 C 365 560.21002 372.83502 552.375 382.5 552.375 C 390.62067 552.375 397.43131 557.90576 399.40625 565.40625 L 404.75 563.875 C 403.04904 551.72352 392.62024 542.375 380 542.375 z "
       id="path2864" />
    <path
       style="fill:#008000"
       d="m 390,607.375 c -13.80712,0 -25,11.19288 -25,25 0,13.80712 11.19288,25 25,25 7.92611,0 14.9823,-3.71453 19.5625,-9.46875 L 385,637.375 l 29.75,-8.5 c -1.70096,-12.15148 -12.12976,-21.5 -24.75,-21.5 z"
       id="path2838-4" />
    <path
       id="path2864-9"
       d="m 450,607.375 c -13.80712,0 -25,11.19288 -25,25 0,13.80712 11.19288,25 25,25 7.92611,0 14.9823,-3.71453 19.5625,-9.46875 L 445,637.375 l 29.75,-8.5 c -1.70096,-12.15148 -12.12976,-21.5 -24.75,-21.5 z"
       style="fill:#008000;stroke:#000000" />
    <path
       id="path2912"
       d="m 440,542.375 c -13.80712,0 -25,11.19288 -25,25 0,13.80712 11.19288,25 25,25 7.92611,0 14.9823,-3.71453 19.5625,-9.46875 l -3.8125,-1.625 c -3.20921,3.72361 -7.94861,6.09375 -13.25,6.09375 -9.66498,0 -17.5,-7.83502 -17.5,-17.5 0,-9.66498 7.83502,-17.5 17.5,-17.5 8.12067,0 14.93131,5.53076 16.90625,13.03125 L 464.75,563.875 c -1.70096,-12.15148 -12.12976,-21.5 -24.75,-21.5 z"
       style="fill:#0000ff;stroke:#000000" />
    <path
       sodipodi:nodetypes="ccccc"
       id="path2916"
       d="m 530,587.36218 -35,-15 7,-2 30,15 -2,2 z"
       style="fill:#0000ff;stroke:#000000;stroke-width:1px;stroke-linecap:butt;stroke-linejoin:miter;stroke-opacity:1" />
    <path
       style="fill:#00ff00;stroke:#000000"
       d="m 510,607.375 c -13.80712,0 -25,11.19288 -25,25 0,13.80712 11.19288,25 25,25 7.92611,0 14.9823,-3.71453 19.5625,-9.46875 1.1261,-1.41474 2.10463,-2.9534 2.90625,-4.59375 l -19.375,-8.25 -8.09375,2.3125 19.75,8.46875 c -3.65677,3.99659 -8.906,6.53125 -14.75,6.53125 -11.04569,0 -20,-8.95431 -20,-20 0,-11.04569 8.95431,-20 20,-20 10.3341,0 18.8535,7.81966 19.90625,17.875 l 4.84375,-1.375 c -1.70096,-12.15148 -12.12976,-21.5 -24.75,-21.5 z m 3.09375,27.6875 0.0937,-0.0312 -0.15625,0 0.0625,0.0312 z"
       id="path2930" />
    <path
       style="fill:none;stroke:#000000;stroke-width:1px;stroke-linecap:butt;stroke-linejoin:miter;stroke-opacity:1"
       d="m 530,587.36218 -35,-15 35,-10"
       id="path2941"
       sodipodi:nodetypes="ccc" />
    <path
       style="fill:#00ff00;stroke:#000000"
       d="M 440 542.375 C 426.19288 542.375 415 553.56788 415 567.375 C 415 581.18212 426.19288 592.375 440 592.375 C 447.92611 592.375 454.9823 588.66047 459.5625 582.90625 C 460.26538 582.02321 460.92 581.09947 461.5 580.125 L 442 570.375 L 435 572.375 L 455.75 581.28125 C 452.54079 585.00486 447.80139 587.375 442.5 587.375 C 432.83502 587.375 425 579.53998 425 569.875 C 425 560.21002 432.83502 552.375 442.5 552.375 C 450.62067 552.375 457.43131 557.90576 459.40625 565.40625 L 464.75 563.875 C 463.04904 551.72352 452.62024 542.375 440 542.375 z "
       id="path2943" />
    <path
       transform="translate(70,145)"
       sodipodi:type="arc"
       style="fill:#0000ff;stroke:none"
       id="path2959"
       sodipodi:cx="380"
       sodipodi:cy="567.36218"
       sodipodi:rx="25"
       sodipodi:ry="25"
       d="m 405,567.36218 a 25,25 0 1 1 -50,0 25,25 0 1 1 50,0 z" />
    <path
       transform="matrix(0.8,0,0,0.79999996,146,258.47246)"
       d="m 405,567.36218 a 25,25 0 1 1 -50,0 25,25 0 1 1 50,0 z"
       sodipodi:ry="25"
       sodipodi:rx="25"
       sodipodi:cy="567.36218"
       sodipodi:cx="380"
       id="path2961"
       style="fill:#000080;stroke:none"
       sodipodi:type="arc" />
    <path
       id="path2963"
       d="m 450,687.36218 c -13.80712,0 -25,11.19288 -25,25 0,13.80712 11.19288,25 25,25 7.92611,0 14.9823,-3.71453 19.5625,-9.46875 L 445,717.36218 l 29.75,-8.5 c -1.70096,-12.15148 -12.12976,-21.5 -24.75,-21.5 z"
       style="fill:#000080" />
    <path
       style="fill:#0000ff;stroke:#000000"
       d="m 450,687.375 c -13.80712,0 -25,11.19288 -25,25 0,13.80712 11.19288,25 25,25 7.92611,0 14.9823,-3.71453 19.5625,-9.46875 L 445,717.375 l 29.75,-8.5 c -1.70096,-12.15148 -12.12976,-21.5 -24.75,-21.5 z"
       id="path2965" />
    <path
       id="path2967"
       d="m 450,687.375 c -13.80712,0 -25,11.19288 -25,25 0,13.80712 11.19288,25 25,25 7.92611,0 14.9823,-3.71453 19.5625,-9.46875 l -4.8125,-2.0625 c -3.65677,3.99659 -8.906,6.53125 -14.75,6.53125 -11.04569,0 -20,-8.95431 -20,-20 0,-11.04569 8.95431,-20 20,-20 10.3341,0 18.8535,7.81966 19.90625,17.875 l 4.84375,-1.375 c -1.70096,-12.15148 -12.12976,-21.5 -24.75,-21.5 z"
       style="fill:#00ff00;stroke:#000000" />
    <path
       style="fill:none;stroke:#000000;stroke-width:1px;stroke-linecap:butt;stroke-linejoin:miter;stroke-opacity:1"
       d="m 480,732.36218 -35,-15 35,-10"
       id="path2969"
       sodipodi:nodetypes="ccc" />
    <path
       sodipodi:nodetypes="ccc"
       id="path2975"
       d="m 480,732.36218 -35,-15 35,-10 0,25 z"
       style="fill:none;stroke:#000000;stroke-width:1px;stroke-linecap:butt;stroke-linejoin:miter;stroke-opacity:1" />
    <path
       sodipodi:nodetypes="cc"
       id="path2977"
       d="m 447,712.36218 35,15"
       style="fill:none;stroke:#000000;stroke-width:1px;stroke-linecap:butt;stroke-linejoin:miter;stroke-opacity:1" />
    <path
       id="path2994"
       d="m 580,622.375 c -13.80712,0 -25,11.19288 -25,25 0,13.80712 11.19288,25 25,25 7.92611,0 14.9823,-3.71453 19.5625,-9.46875 l -3.8125,-1.625 -20.75,-8.90625 -3,4 21.09375,7.40625 c -2.94124,2.25366 -6.60185,3.59375 -10.59375,3.59375 -9.66498,0 -17.5,-7.83502 -17.5,-17.5 0,-9.66498 7.83502,-17.5 17.5,-17.5 8.12067,0 14.93131,5.53076 16.90625,13.03125 L 604.75,643.875 c -1.70096,-12.15148 -12.12976,-21.5 -24.75,-21.5 z"
       style="fill:#00ff00;stroke:#000000" />
    <path
       id="path2996"
       d="m 640,622.36218 c -13.80712,0 -25,11.19288 -25,25 0,13.80712 11.19288,25 25,25 7.92611,0 14.9823,-3.71453 19.5625,-9.46875 0.70288,-0.88304 1.3575,-1.80678 1.9375,-2.78125 l -19.5,-9.75 -7,2 20.75,8.90625 c -3.20921,3.72361 -7.94861,6.09375 -13.25,6.09375 -9.66498,0 -17.5,-7.83502 -17.5,-17.5 0,-9.66498 7.83502,-17.5 17.5,-17.5 8.12067,0 14.93131,5.53076 16.90625,13.03125 l 5.34375,-1.53125 c -1.70096,-12.15148 -12.12976,-21.5 -24.75,-21.5 z"
       style="fill:#00ff00;stroke:#000000" />
    <text
       xml:space="preserve"
       style="font-size:8px;font-style:normal;font-weight:normal;fill:#000000;fill-opacity:1;stroke:none;font-family:Bitstream Vera Sans"
       x="544.27344"
       y="683.44031"
       id="text2998"><tspan
         sodipodi:role="line"
         id="tspan3000"
         x="544.27344"
         y="683.44031">mark likes this one</tspan></text>
    <path
       style="fill:url(#radialGradient3782);stroke:none;fill-opacity:1;stroke-opacity:1"
       d="m 350,672.36218 c -13.80712,0 -25,11.19288 -25,25 0,13.80712 11.19288,25 25,25 7.92611,0 14.9823,-3.71453 19.5625,-9.46875 L 345,702.36218 l 29.75,-8.5 c -1.70096,-12.15148 -12.12976,-21.5 -24.75,-21.5 z"
       id="path3002"
       inkscape:export-filename="/home/jared/clone/gamecc/gameccorg/media/images/logo_nol.png"
       inkscape:export-xdpi="144.72362"
       inkscape:export-ydpi="144.72362" />
    <path
       style="fill:#88dd33;stroke:none;stroke-width:1px;stroke-linecap:butt;stroke-linejoin:miter;stroke-opacity:1;fill-opacity:1"
       d="m 330,697.36218 c 4.33239,-8.17928 10.90756,-14.91457 20,-20 0,0 -7.96889,-2.03111 -15,5 -7,7 -5,15 -5,15 z"
       id="path3784"
       sodipodi:nodetypes="cczc" />
    <path
       id="path3786"
       d="m 435.35714,753.79075 c -13.80712,0 -25,11.19288 -25,25 0,13.80712 11.19288,25 25,25 7.92611,0 14.9823,-3.71453 19.5625,-9.46875 l -24.5625,-10.53125 29.75,-8.5 c -1.70096,-12.15148 -12.12976,-21.5 -24.75,-21.5 z"
       style="fill:url(#radialGradient3790);fill-opacity:1;stroke:#000000" />
    <path
       sodipodi:nodetypes="cczc"
       id="path3788"
       d="m 415.35714,778.79075 c 4.33239,-8.17928 10.90756,-14.91457 20,-20 0,0 -7.96889,-2.03111 -15,5 -7,7 -5,15 -5,15 z"
       style="fill:#88dd33;fill-opacity:1;stroke:none" />
    <g
       style="font-size:40px;font-style:normal;font-variant:normal;font-weight:bold;font-stretch:normal;fill:#ffffff;fill-opacity:1;stroke:none;font-family:Trebuchet MS;-inkscape-font-specification:Andale Mono Bold"
       id="text2986"
       transform="translate(-3.5397,-9.9196774)">
      <path
         d="m 171.0397,770.50452 -2.1289,4.08203 c -0.59898,-0.53383 -1.52346,-1.06118 -2.77344,-1.58203 -1.25002,-0.53383 -2.32424,-0.80076 -3.22266,-0.80078 -2.81251,2e-5 -5.03256,0.95705 -6.66015,2.87109 -1.62761,1.90106 -2.44142,4.45314 -2.44141,7.65625 -1e-5,3.04689 0.79426,5.48178 2.38281,7.30469 1.60156,1.82292 3.77603,2.73438 6.52344,2.73437 1.80988,10e-6 3.30076,-0.49479 4.47266,-1.48437 l 0,-5.625 -3.96485,0 0,-4.33594 9.04297,0 0,12.8125 c -1.21096,0.98958 -2.77346,1.76432 -4.6875,2.32422 -1.90106,0.54687 -3.79559,0.82031 -5.68359,0.82031 -4.10157,0 -7.35678,-1.34114 -9.76563,-4.02344 -2.39583,-2.6953 -3.59375,-6.24999 -3.59375,-10.66406 0,-4.41404 1.30859,-8.00128 3.92578,-10.76172 2.61718,-2.76039 6.13932,-4.14059 10.56641,-4.14062 3.138,3e-5 5.80727,0.93752 8.00781,2.8125"
         id="path2995"
         style="fill:#ffffff" />
      <path
         d="m 186.12955,794.70374 c -0.44273,0.72916 -1.21746,1.32812 -2.32422,1.79687 -1.09376,0.45573 -2.23959,0.68359 -3.4375,0.68359 -2.25261,0 -4.02344,-0.55989 -5.3125,-1.67968 -1.28907,-1.13281 -1.9336,-2.73437 -1.9336,-4.80469 0,-2.42187 0.90495,-4.3164 2.71485,-5.68359 1.82291,-1.36718 4.40754,-2.05077 7.7539,-2.05079 0.57291,2e-5 1.24999,0.0977 2.03125,0.29297 -1e-5,-2.46092 -1.556,-3.69139 -4.66796,-3.6914 -1.83595,1e-5 -3.37241,0.306 -4.60938,0.91797 l -1.05469,-3.78907 c 1.67969,-0.80727 3.67838,-1.21091 5.9961,-1.21093 3.19009,2e-5 5.52733,0.72918 7.01172,2.1875 1.48435,1.44533 2.22654,4.19272 2.22656,8.24218 l 0,4.47266 c -2e-5,2.78646 0.55987,4.53776 1.67969,5.25391 -0.40367,0.70312 -0.85289,1.13281 -1.34766,1.28906 -0.49481,0.16927 -1.06122,0.2539 -1.69922,0.2539 -0.70314,0 -1.33465,-0.26041 -1.89453,-0.78125 -0.55991,-0.52083 -0.93751,-1.08723 -1.13281,-1.69921 m -0.46875,-7.75391 c -0.83335,-0.16926 -1.45835,-0.2539 -1.875,-0.25391 -3.85418,10e-6 -5.78126,1.26303 -5.78125,3.78907 -1e-5,1.875 1.08723,2.8125 3.26172,2.8125 2.92967,0 4.39451,-1.46484 4.39453,-4.39454 l 0,-1.95312"
         id="path2997"
         style="fill:#ffffff" />
      <path
         d="m 218.0358,796.79358 0,-13.10547 c -3e-5,-2.74738 -1.2305,-4.12108 -3.69141,-4.12109 -0.72919,1e-5 -1.43231,0.21486 -2.10937,0.64453 -0.67711,0.4297 -1.15237,0.92449 -1.42579,1.48437 l 0,15.09766 -4.88281,0 0,-13.86719 c -1e-5,-1.02863 -0.31902,-1.84243 -0.95703,-2.4414 -0.63803,-0.61197 -1.53647,-0.91796 -2.69531,-0.91797 -0.61199,1e-5 -1.28256,0.22788 -2.01172,0.68359 -0.71615,0.45575 -1.23699,0.95705 -1.5625,1.50391 l 0,15.03906 -4.88281,0 0,-20.91797 3.35937,0 0.9961,1.83594 c 1.35415,-1.48436 3.10545,-2.22654 5.2539,-2.22656 2.77342,2e-5 4.86327,0.75522 6.26953,2.26562 0.61196,-0.69008 1.46483,-1.23696 2.5586,-1.64062 1.09372,-0.41665 2.18747,-0.62498 3.28125,-0.625 2.3307,2e-5 4.14059,0.67059 5.42968,2.01171 1.30206,1.32815 1.9531,3.15757 1.95313,5.48829 l 0,13.80859 -4.88281,0"
         id="path2999"
         style="fill:#ffffff" />
      <path
         d="m 244.86392,787.82874 -14.9414,0 c 0.0911,1.66667 0.66405,2.96224 1.71875,3.88671 1.05467,0.92449 2.47394,1.38673 4.25781,1.38672 2.22655,10e-6 3.91925,-0.57942 5.07812,-1.73828 l 1.89453,3.73047 c -1.71876,1.39323 -4.28386,2.08984 -7.69531,2.08984 -3.19011,0 -5.71615,-0.93098 -7.57812,-2.79296 -1.84896,-1.875 -2.77344,-4.48567 -2.77344,-7.83204 0,-3.29425 1.01562,-5.96352 3.04687,-8.00781 2.04427,-2.04425 4.49218,-3.06638 7.34375,-3.0664 3.03384,2e-5 5.46874,0.90496 7.30469,2.71484 1.83592,1.80991 2.75389,4.1146 2.75391,6.91406 -2e-5,0.59897 -0.13674,1.50392 -0.41016,2.71485 m -14.76562,-3.67188 10.27343,0 c -0.33855,-3.05988 -2.03126,-4.58983 -5.07812,-4.58984 -2.78647,1e-5 -4.51824,1.52996 -5.19531,4.58984"
         id="path3001"
         style="fill:#ffffff" />
      <path
         d="m 267.06314,769.70374 -2.08984,4.19921 c -1.13283,-1.13278 -2.95575,-1.69919 -5.46875,-1.69921 -2.38283,2e-5 -4.33595,1.00262 -5.85938,3.00781 -1.52344,1.9922 -2.28516,4.51824 -2.28515,7.57812 -1e-5,3.05991 0.70311,5.48829 2.10937,7.28516 1.41926,1.79688 3.30728,2.69532 5.66406,2.69531 2.6953,10e-6 4.80467,-0.96354 6.32813,-2.89062 l 2.36328,4.10156 c -2.07033,2.20052 -5.10419,3.30078 -9.10156,3.30078 -3.99741,0 -7.10287,-1.3151 -9.31641,-3.94531 -2.21354,-2.6302 -3.32031,-6.21744 -3.32031,-10.76172 0,-4.23175 1.22395,-7.76691 3.67187,-10.60547 2.46093,-2.85153 5.60546,-4.27731 9.4336,-4.27734 3.28123,3e-5 5.90492,0.6706 7.87109,2.01172"
         id="path3003"
         style="fill:#cccccc" />
      <path
         d="m 287.51627,769.70374 -2.08985,4.19921 c -1.13283,-1.13278 -2.95574,-1.69919 -5.46875,-1.69921 -2.38282,2e-5 -4.33595,1.00262 -5.85937,3.00781 -1.52345,1.9922 -2.28517,4.51824 -2.28516,7.57812 -10e-6,3.05991 0.70312,5.48829 2.10938,7.28516 1.41926,1.79688 3.30728,2.69532 5.66406,2.69531 2.69529,10e-6 4.80467,-0.96354 6.32812,-2.89062 l 2.36328,4.10156 c -2.07033,2.20052 -5.10418,3.30078 -9.10156,3.30078 -3.9974,0 -7.10287,-1.3151 -9.3164,-3.94531 -2.21355,-2.6302 -3.32032,-6.21744 -3.32032,-10.76172 0,-4.23175 1.22396,-7.76691 3.67188,-10.60547 2.46093,-2.85153 5.60546,-4.27731 9.43359,-4.27734 3.28123,3e-5 5.90493,0.6706 7.8711,2.01172"
         id="path3005"
         style="fill:#cccccc" />
    </g>
    <g
       id="g3013"
       transform="matrix(0.59999996,0,0,0.59999996,168.07858,363.80205)">
      <path
         style="fill:url(#radialGradient3035);fill-opacity:1;stroke:none"
         d="m 216.78571,655.93361 c -13.80712,0 -25,11.19288 -25,25 0,13.80712 11.19288,25 25,25 7.92611,0 14.9823,-3.71453 19.5625,-9.46875 l -24.5625,-10.53125 29.75,-8.5 c -1.70096,-12.15148 -12.12976,-21.5 -24.75,-21.5 z"
         id="path3007"
         inkscape:export-filename="/home/jared/clone/gamecc/gameccorg/media/images/logo_nol.png"
         inkscape:export-xdpi="144.72362"
         inkscape:export-ydpi="144.72362" />
      <path
         style="fill:#88dd33;fill-opacity:1;stroke:none"
         d="m 196.78571,680.93361 c 4.33239,-8.17928 10.90756,-14.91457 20,-20 0,0 -7.96889,-2.03111 -15,5 -7,7 -5,15 -5,15 z"
         id="path3009"
         sodipodi:nodetypes="cczc" />
    </g>
    <g
       id="g3865"
       transform="translate(1.7857143,-3.9285712)"
       inkscape:export-filename="/home/jared/clone/gamecc/gameccorg/media/images/grey_logo2.png"
       inkscape:export-xdpi="60"
       inkscape:export-ydpi="60">
      <g
         style="font-size:40px;font-style:normal;font-variant:normal;font-weight:bold;font-stretch:normal;fill:#ffffff;fill-opacity:1;stroke:none;font-family:Trebuchet MS;-inkscape-font-specification:Andale Mono Bold"
         id="g3037"
         transform="translate(-3.5397,-69.919677)">
        <path
           d="m 170.23613,770.50452 -2.1289,4.08203 c -0.59898,-0.53383 -1.52346,-1.06118 -2.77344,-1.58203 -1.25002,-0.53383 -2.32424,-0.80076 -3.22266,-0.80078 -2.81251,2e-5 -5.03256,0.95705 -6.66015,2.87109 -1.62761,1.90106 -2.44142,4.45314 -2.44141,7.65625 -1e-5,3.04689 0.79426,5.48178 2.38281,7.30469 1.60156,1.82292 3.77603,2.73438 6.52344,2.73437 1.80988,10e-6 3.30076,-0.49479 4.47266,-1.48437 l 0,-5.625 -3.96485,0 0,-4.33594 9.04297,0 0,12.8125 c -1.21096,0.98958 -2.77346,1.76432 -4.6875,2.32422 -1.90106,0.54687 -3.79559,0.82031 -5.68359,0.82031 -4.10157,0 -7.35678,-1.34114 -9.76563,-4.02344 -2.39583,-2.6953 -3.59375,-6.24999 -3.59375,-10.66406 0,-4.41404 1.30859,-8.00128 3.92578,-10.76172 2.61718,-2.76039 6.13932,-4.14059 10.56641,-4.14062 3.138,3e-5 5.80727,0.93752 8.00781,2.8125"
           id="path3039"
           style="fill:#ffffff" />
        <path
           d="m 186.12955,794.70374 c -0.44273,0.72916 -1.21746,1.32812 -2.32422,1.79687 -1.09376,0.45573 -2.23959,0.68359 -3.4375,0.68359 -2.25261,0 -4.02344,-0.55989 -5.3125,-1.67968 -1.28907,-1.13281 -1.9336,-2.73437 -1.9336,-4.80469 0,-2.42187 0.90495,-4.3164 2.71485,-5.68359 1.82291,-1.36718 4.40754,-2.05077 7.7539,-2.05079 0.57291,2e-5 1.24999,0.0977 2.03125,0.29297 -1e-5,-2.46092 -1.556,-3.69139 -4.66796,-3.6914 -1.83595,1e-5 -3.37241,0.306 -4.60938,0.91797 l -1.05469,-3.78907 c 1.67969,-0.80727 3.67838,-1.21091 5.9961,-1.21093 3.19009,2e-5 5.52733,0.72918 7.01172,2.1875 1.48435,1.44533 2.22654,4.19272 2.22656,8.24218 l 0,4.47266 c -2e-5,2.78646 0.55987,4.53776 1.67969,5.25391 -0.40367,0.70312 -0.85289,1.13281 -1.34766,1.28906 -0.49481,0.16927 -1.06122,0.2539 -1.69922,0.2539 -0.70314,0 -1.33465,-0.26041 -1.89453,-0.78125 -0.55991,-0.52083 -0.93751,-1.08723 -1.13281,-1.69921 m -0.46875,-7.75391 c -0.83335,-0.16926 -1.45835,-0.2539 -1.875,-0.25391 -3.85418,10e-6 -5.78126,1.26303 -5.78125,3.78907 -1e-5,1.875 1.08723,2.8125 3.26172,2.8125 2.92967,0 4.39451,-1.46484 4.39453,-4.39454 l 0,-1.95312"
           id="path3041"
           style="fill:#ffffff" />
        <path
           d="m 218.0358,796.79358 0,-13.10547 c -3e-5,-2.74738 -1.2305,-4.12108 -3.69141,-4.12109 -0.72919,1e-5 -1.43231,0.21486 -2.10937,0.64453 -0.67711,0.4297 -1.15237,0.92449 -1.42579,1.48437 l 0,15.09766 -4.88281,0 0,-13.86719 c -1e-5,-1.02863 -0.31902,-1.84243 -0.95703,-2.4414 -0.63803,-0.61197 -1.53647,-0.91796 -2.69531,-0.91797 -0.61199,1e-5 -1.28256,0.22788 -2.01172,0.68359 -0.71615,0.45575 -1.23699,0.95705 -1.5625,1.50391 l 0,15.03906 -4.88281,0 0,-20.91797 3.35937,0 0.9961,1.83594 c 1.35415,-1.48436 3.10545,-2.22654 5.2539,-2.22656 2.77342,2e-5 4.86327,0.75522 6.26953,2.26562 0.61196,-0.69008 1.46483,-1.23696 2.5586,-1.64062 1.09372,-0.41665 2.18747,-0.62498 3.28125,-0.625 2.3307,2e-5 4.14059,0.67059 5.42968,2.01171 1.30206,1.32815 1.9531,3.15757 1.95313,5.48829 l 0,13.80859 -4.88281,0"
           id="path3043"
           style="fill:#ffffff" />
        <path
           d="m 244.86392,787.82874 -14.9414,0 c 0.0911,1.66667 0.66405,2.96224 1.71875,3.88671 1.05467,0.92449 2.47394,1.38673 4.25781,1.38672 2.22655,10e-6 3.91925,-0.57942 5.07812,-1.73828 l 1.89453,3.73047 c -1.71876,1.39323 -4.28386,2.08984 -7.69531,2.08984 -3.19011,0 -5.71615,-0.93098 -7.57812,-2.79296 -1.84896,-1.875 -2.77344,-4.48567 -2.77344,-7.83204 0,-3.29425 1.01562,-5.96352 3.04687,-8.00781 2.04427,-2.04425 4.49218,-3.06638 7.34375,-3.0664 3.03384,2e-5 5.46874,0.90496 7.30469,2.71484 1.83592,1.80991 2.75389,4.1146 2.75391,6.91406 -2e-5,0.59897 -0.13674,1.50392 -0.41016,2.71485 m -14.76562,-3.67188 10.27343,0 c -0.33855,-3.05988 -2.03126,-4.58983 -5.07812,-4.58984 -2.78647,1e-5 -4.51824,1.52996 -5.19531,4.58984"
           id="path3045"
           style="fill:#ffffff" />
      </g>
      <path
         inkscape:export-ydpi="144.72362"
         inkscape:export-xdpi="144.72362"
         inkscape:export-filename="/home/jared/clone/gamecc/gameccorg/media/images/logo_nol.png"
         id="path3053"
         d="m 258.15,697.36219 c -8.28427,0 -15,6.71573 -15,15 0,8.28427 6.71573,15 15,15 4.75566,0 8.98938,-2.22872 11.7375,-5.68125 l -14.7375,-6.31875 17.85,-5.1 c -1.02058,-7.29089 -7.27786,-12.9 -14.85,-12.9 z"
         style="fill:#cccccc;fill-opacity:1;stroke:none" />
      <path
         sodipodi:nodetypes="cczc"
         id="path3055"
         d="m 246.15,712.36219 c 2.59943,-4.90757 6.54453,-8.94874 12,-12 0,0 -4.78134,-1.21867 -9,3 -4.2,4.2 -3,9 -3,9 z"
         style="fill:#ffffff;fill-opacity:1;stroke:none" />
      <path
         style="fill:#cccccc;fill-opacity:1;stroke:none"
         d="m 290.15,697.36219 c -8.28427,0 -15,6.71573 -15,15 0,8.28427 6.71573,15 15,15 4.75566,0 8.98938,-2.22872 11.7375,-5.68125 l -14.7375,-6.31875 17.85,-5.1 c -1.02058,-7.29089 -7.27786,-12.9 -14.85,-12.9 z"
         id="path3059"
         inkscape:export-filename="/home/jared/clone/gamecc/gameccorg/media/images/logo_nol.png"
         inkscape:export-xdpi="144.72362"
         inkscape:export-ydpi="144.72362" />
      <path
         style="fill:#ffffff;fill-opacity:1;stroke:none"
         d="m 278.15,712.36219 c 2.59943,-4.90757 6.54453,-8.94874 12,-12 0,0 -4.78134,-1.21867 -9,3 -4.2,4.2 -3,9 -3,9 z"
         id="path3061"
         sodipodi:nodetypes="cczc" />
    </g>
  </g>
</svg>
